<svg width="20" height="22" viewBox="0 0 20 22" fill="none" xmlns="http://www.w3.org/2000/svg">
<path d="M6.37284 21.8182C5.58729 21.7791 4.84806 21.4643 4.30778 20.9389C3.66139 20.3675 3.08458 19.7332 2.58752 19.0471C1.81106 18.0255 1.1973 16.9073 0.764815 15.7263C0.275351 14.4557 0.017859 13.1195 0.00275362 11.7717C-0.0352715 10.4493 0.321145 9.14251 1.03341 7.99284C1.55508 7.16417 2.29917 6.47216 3.19467 5.98287C4.08026 5.49566 5.09085 5.23341 6.12298 5.22296C6.90106 5.26525 7.66566 5.42866 8.38418 5.70622C8.9576 5.9381 9.55976 6.1011 10.1782 6.19064C10.8603 6.05934 11.5268 5.86711 12.1683 5.61669C12.9274 5.34433 13.7312 5.1918 14.5456 5.16556C14.6543 5.16556 14.7618 5.16556 14.8655 5.17704C16.6519 5.2241 18.3135 6.02993 19.3629 7.35806C18.5439 7.76055 17.8624 8.36383 17.3942 9.10086C16.926 9.8379 16.6893 10.6798 16.7106 11.533C16.7025 12.1854 16.8449 12.8319 17.1285 13.4301C17.4121 14.0282 17.8304 14.5643 18.3559 15.0031C18.8344 15.4218 19.3914 15.7574 20 15.9937C19.8751 16.3381 19.7314 16.671 19.579 17.0062C19.233 17.7469 18.806 18.4534 18.3047 19.1149C17.8307 19.7775 17.279 20.3903 16.6594 20.9423C16.0943 21.4576 15.3409 21.7616 14.5456 21.7952C13.8715 21.7678 13.2092 21.6225 12.5943 21.3671C11.9311 21.1016 11.2185 20.9562 10.4955 20.9389C9.75201 20.9524 9.0183 21.0969 8.33421 21.3648C7.74336 21.6097 7.1121 21.7622 6.46653 21.8159L6.37284 21.8182ZM10.3081 5.16556C10.2144 5.16556 10.1207 5.16556 10.027 5.15523C10.0073 5.01859 9.99685 4.88096 9.99576 4.74313C10.0366 3.59653 10.5243 2.50155 11.37 1.65757C11.843 1.17253 12.4163 0.778809 13.0565 0.499338C13.6531 0.217131 14.3051 0.0473585 14.9741 0C14.9929 0.150375 14.9929 0.297307 14.9929 0.437351C14.9753 1.56593 14.5138 2.65053 13.6936 3.49077C13.2965 3.98003 12.7877 4.38349 12.2028 4.67282C11.6179 4.96215 10.9712 5.13033 10.3081 5.16556Z" fill="#14213D"/>
</svg>
