<svg width="20" height="20" viewBox="0 0 20 20" fill="none" xmlns="http://www.w3.org/2000/svg">
<path d="M19.8054 8.04144H18.9999V7.99994H9.99993V11.9999H15.6514C14.8269 14.3284 12.6114 15.9999 9.99993 15.9999C6.68645 15.9999 3.99997 13.3134 3.99997 9.99993C3.99997 6.68645 6.68645 3.99997 9.99993 3.99997C11.5294 3.99997 12.9209 4.57697 13.9804 5.51946L16.8089 2.69098C15.0229 1.02649 12.6339 0 9.99993 0C4.47747 0 0 4.47747 0 9.99993C0 15.5224 4.47747 19.9999 9.99993 19.9999C15.5224 19.9999 19.9999 15.5224 19.9999 9.99993C19.9999 9.32944 19.9309 8.67494 19.8054 8.04144Z" fill="#FFC107"/>
<path d="M1.15308 5.34546L4.43855 7.75495C5.32755 5.55396 7.48053 3.99997 10 3.99997C11.5295 3.99997 12.921 4.57697 13.9805 5.51946L16.809 2.69098C15.023 1.02649 12.634 0 10 0C6.15904 0 2.82806 2.16848 1.15308 5.34546Z" fill="#FF3D00"/>
<path d="M9.99985 20.0002C12.5828 20.0002 14.9298 19.0117 16.7043 17.4042L13.6093 14.7852C12.5716 15.5744 11.3036 16.0012 9.99985 16.0002C7.39887 16.0002 5.19038 14.3417 4.35839 12.0272L1.09741 14.5397C2.7524 17.7782 6.11338 20.0002 9.99985 20.0002Z" fill="#4CAF50"/>
<path d="M19.8054 8.04162H18.9999V8.00012H10V12.0001H15.6515C15.2571 13.1083 14.5466 14.0767 13.608 14.7856L13.6095 14.7846L16.7045 17.4036C16.4855 17.6026 19.9999 15.0001 19.9999 10.0001C19.9999 9.32961 19.9309 8.67512 19.8054 8.04162Z" fill="#1976D2"/>
</svg>
